<svg id="Achievers-Logo" xmlns="http://www.w3.org/2000/svg" width="150" height="28.085" viewBox="0 0 150 28.085">
  <path id="Path_1" data-name="Path 1" d="M877.882,103.882a7.879,7.879,0,0,0-3.743-2.025l-2.458-.631q-2.2-.595-2.2-2.08a1.893,1.893,0,0,1,.715-1.523,2.859,2.859,0,0,1,1.89-.594,3.1,3.1,0,0,1,1.908.575,2.3,2.3,0,0,1,.917,1.579h4.025a5.8,5.8,0,0,0-2.392-4.42,8.047,8.047,0,0,0-4.6-1.264,8.567,8.567,0,0,0-2.79.427,6.164,6.164,0,0,0-2.11,1.189,5.112,5.112,0,0,0-1.322,1.82,5.669,5.669,0,0,0-.458,2.284,4.749,4.749,0,0,0,1.193,3.251,7.875,7.875,0,0,0,3.945,2.1l2.495.668c1.3.348,1.883,1.005,1.945,1.969.058.928-.7,2.117-2.555,2.117a3.793,3.793,0,0,1-2.275-.612,2.283,2.283,0,0,1-.955-1.69H865a5.911,5.911,0,0,0,2.273,4.439,8.386,8.386,0,0,0,5.047,1.394,7.3,7.3,0,0,0,4.958-1.523,4.859,4.859,0,0,0,1.89-4.086A4.708,4.708,0,0,0,877.882,103.882Z" transform="translate(-729.168 -84.771)" fill="#4e008e"/>
  <path id="Path_2" data-name="Path 2" d="M204.388,105.75a4.469,4.469,0,0,1-4.587,3.082,4.662,4.662,0,0,1-3.652-1.49,6.026,6.026,0,0,1-1.34-4.174,6.2,6.2,0,0,1,1.34-4.174,4.558,4.558,0,0,1,3.652-1.566,4.484,4.484,0,0,1,4.55,3.194h4.127a8.025,8.025,0,0,0-3.59-5.736,9.257,9.257,0,0,0-5.16-1.4,9.818,9.818,0,0,0-3.795.705,8.394,8.394,0,0,0-4.8,5.014,11.462,11.462,0,0,0-.655,3.975,11.04,11.04,0,0,0,.673,3.938,8.94,8.94,0,0,0,1.873,3.047,8.365,8.365,0,0,0,2.9,1.969,8.978,8.978,0,0,0,3.758.705c8.07-.256,8.787-7.1,8.787-7.1h-4.088Z" transform="translate(-167.067 -84.763)" fill="#4e008e"/>
  <path id="Path_3" data-name="Path 3" d="M68.26,55.465l-3.647,2.612,1.7,4.906-4.265-3.069-4.283,3.069,4.273-12.344,1.67,4.82h4.552L64.385,44.62H56.233l2.752,1.969L50,71.737h4.7l2.2-6.315H67.1l2.165,6.315h4.807Z" transform="translate(-50 -44.137)" fill="#4e008e"/>
  <path id="Path_4" data-name="Path 4" d="M324.963,58.216V69.361h-4.33v-10.2a7.065,7.065,0,0,0-.312-2.252,3.628,3.628,0,0,0-.863-1.453,3.292,3.292,0,0,0-1.283-.783,4.994,4.994,0,0,0-1.578-.241,4.672,4.672,0,0,0-1.56.278,4.475,4.475,0,0,0-1.45.857,4.2,4.2,0,0,0-1.063,1.49,5.348,5.348,0,0,0-.4,2.18V69.362h-4.33V41.76h4.33V52.918a5.965,5.965,0,0,1,2.257-1.766,7.206,7.206,0,0,1,3.1-.663A7.46,7.46,0,0,1,323,52.458,7.826,7.826,0,0,1,324.963,58.216Z" transform="translate(-264.825 -41.76)" fill="#4e008e"/>
  <path id="Path_5" data-name="Path 5" d="M422.21,45.417a2.743,2.743,0,0,1,2.752-2.787,2.582,2.582,0,0,1,1.927.817,2.853,2.853,0,0,1,0,3.938,2.576,2.576,0,0,1-1.927.817,2.634,2.634,0,0,1-1.945-.817A2.7,2.7,0,0,1,422.21,45.417Zm4.918,6.352V70.082H422.8V51.769Z" transform="translate(-360.176 -42.483)" fill="#4e008e"/>
  <path id="Path_6" data-name="Path 6" d="M585.3,96.8l-7.56,18.313H573.45L566.22,96.8h4.7l4.77,13.114,5.1-13.114H585.3Z" transform="translate(-480.184 -87.514)" fill="#4e008e"/>
  <path id="Path_7" data-name="Path 7" d="M801.708,95.26a7.889,7.889,0,0,1,2.128.26v4.049a7.916,7.916,0,0,0-2.018-.26,4.5,4.5,0,0,0-3.578,1.449,5.9,5.9,0,0,0-1.267,4.012v9.065h-4.4V95.52h4.037l.257,2.154a3.669,3.669,0,0,1,1.872-1.8A6.991,6.991,0,0,1,801.708,95.26Z" transform="translate(-668.81 -86.234)" fill="#4e008e"/>
  <path id="Path_8" data-name="Path 8" d="M480.711,103.2a11.7,11.7,0,0,0-.642-3.975,8.952,8.952,0,0,0-1.8-3.045,8.033,8.033,0,0,0-2.807-1.969,9.148,9.148,0,0,0-3.633-.705,9.513,9.513,0,0,0-3.707.705,8.22,8.22,0,0,0-2.882,1.987,9.031,9.031,0,0,0-1.853,3.084,11.425,11.425,0,0,0-.66,3.956,11.265,11.265,0,0,0,.66,3.938,8.847,8.847,0,0,0,1.853,3.047,8.155,8.155,0,0,0,2.862,1.95,9.52,9.52,0,0,0,3.652.687,9.206,9.206,0,0,0,5.047-1.338,7.911,7.911,0,0,0,3.712-5.238h-4.133a4.671,4.671,0,0,1-1.8,2.062,5.835,5.835,0,0,1-6.165-.334,4.392,4.392,0,0,1-1.578-3.177h13.871Zm-13.8-1.486a5.2,5.2,0,0,1,1.523-3.371,4.676,4.676,0,0,1,3.285-1.161,4.521,4.521,0,0,1,3.23,1.142,4.9,4.9,0,0,1,1.358,3.389Z" transform="translate(-393.942 -84.779)" fill="#4e008e"/>
  <path id="Path_9" data-name="Path 9" d="M693,103.2a11.7,11.7,0,0,0-.642-3.975,8.951,8.951,0,0,0-1.8-3.045,8.033,8.033,0,0,0-2.807-1.969,9.148,9.148,0,0,0-3.633-.705,9.513,9.513,0,0,0-3.707.705,8.22,8.22,0,0,0-2.882,1.987,9.03,9.03,0,0,0-1.853,3.084,11.425,11.425,0,0,0-.66,3.956,11.265,11.265,0,0,0,.66,3.938,8.846,8.846,0,0,0,1.853,3.047,8.156,8.156,0,0,0,2.862,1.95,9.52,9.52,0,0,0,3.652.687,9.206,9.206,0,0,0,5.047-1.338,7.91,7.91,0,0,0,3.712-5.238h-4.133a4.671,4.671,0,0,1-1.8,2.062,5.835,5.835,0,0,1-6.165-.334,4.392,4.392,0,0,1-1.578-3.177H693Zm-13.8-1.486a5.2,5.2,0,0,1,1.523-3.371,4.669,4.669,0,0,1,3.285-1.161,4.518,4.518,0,0,1,3.23,1.142,4.9,4.9,0,0,1,1.358,3.389Z" transform="translate(-570.851 -84.779)" fill="#4e008e"/>
</svg>
