<?xml version="1.0" encoding="utf-8"?>
<!-- Generator: Adobe Illustrator 16.0.0, SVG Export Plug-In . SVG Version: 6.00 Build 0)  -->
<!DOCTYPE svg PUBLIC "-//W3C//DTD SVG 1.1//EN" "http://www.w3.org/Graphics/SVG/1.1/DTD/svg11.dtd">
<svg version="1.1" id="Layer_1" xmlns="http://www.w3.org/2000/svg" xmlns:xlink="http://www.w3.org/1999/xlink" x="0px" y="0px"
	 width="654.414px" height="120.002px" viewBox="0 0 654.414 120.002" enable-background="new 0 0 654.414 120.002"
	 xmlSpace="preserve">
<g id="orig" xmlnsSvg="http://www.w3.org/2000/svg" xmlnsRdf="http://www.w3.org/1999/02/22-rdf-syntax-ns#" xmlnsCc="http://creativecommons.org/ns#" xmlnsDc="http://purl.org/dc/elements/1.1/" display="none">
	<g id="g12" transform="scale(0.1)" display="inline">
		<path id="path14" fill="#6DCC9C" d="M853.315,815.745L602.593,940.295V800.823l131.851-65.479
			c32.871-16.328,87.514-8.398,119.292,17.324c13.34,10.781,20.713,23.057,20.845,34.561v0.176h0.015c0,0.02,0.01,0.049,0.01,0.088
			C874.629,798.889,867.075,808.918,853.315,815.745z M874.594,454.895l-0.015,276.836c-0.762-0.664-1.523-1.318-2.31-1.953
			c-41.133-33.271-107.431-42.422-150.932-20.801l-118.745,58.975l0.015-177.217l263.803-131.211
			C869.302,458.098,872.021,456.545,874.594,454.895z M573.145,572.493l-0.01,210.078l-107.578,53.447
			c-32.871,16.318-87.5,8.408-119.302-17.324c-13.037-10.547-20.435-22.588-20.85-33.916v-0.088l0.015-327.49
			c0.771,0.645,1.548,1.289,2.349,1.934c41.128,33.281,107.417,42.412,150.933,20.801l255.732-127.197
			c32.881-16.328,87.51-8.389,119.292,17.314c14.507,11.738,22.051,25.498,20.713,37.725c-1.431,12.998-12.271,20.967-21.138,25.371
			L573.145,572.493z M325.586,398.538c1.431-13.008,12.275-20.986,21.123-25.391l226.45-112.422l-0.015,139.326l-107.559,53.506
			c-32.871,16.328-87.5,8.408-119.292-17.314C331.782,424.504,324.233,410.764,325.586,398.538L325.586,398.538z M904.004,405.959
			c0.376-20.811-10.972-41.982-31.748-58.799c-41.118-33.281-107.417-42.412-150.932-20.801l-118.716,59.043
			c0,0,0-161.455,0-165.469c0-4.004-2.461-5.508-6.289-3.604c-3.848,1.914-262.715,130.459-262.715,130.459
			c-21.797,10.811-35.054,28.047-37.305,48.516c-0.22,2.031-0.332,4.053-0.332,6.094l-0.015,383.525l0.015,0.625
			c0.615,20.068,11.904,39.971,31.763,56.035c41.133,33.281,107.432,42.412,150.928,20.801l94.478-46.914c0,0,0,158.555,0,162.314
			c0,3.779,2.158,8.945,9.17,5.469c7.002-3.496,284.116-141.123,284.116-141.123c23.97-11.904,37.7-31.855,37.627-54.717
			c0-0.186-0.02-0.371-0.02-0.547l0.02-380.908H904.004"/>
		<path id="path16" fill="#6DCC9C" d="M3847.27,1169.739H2696.274v-0.01h-1496.27V30.217H3847.27V1169.739z M2666.059,2339.475
			H30.239V1199.973H1169.76l0,0h1496.299V2339.475z M30.239,30.198H1169.76v1139.521H30.239V30.198z M3877.505-0.027H1200v-0.01
			H-0.005v1199.99h0.01v1169.775h2696.269V1199.973h1181.23V-0.027"/>
		<path id="path18" fill="#6DCC9C" d="M1746.518,734.905c-35.386,0-65.2-11.973-88.599-35.596
			c-23.174-23.418-34.922-52.988-34.922-87.91c0-35.156,11.748-64.736,34.922-87.9c23.413-23.643,53.213-35.615,88.599-35.615
			c21.401,0,41.426,5.068,59.536,15.078c17.28,9.561,31.094,22.51,41.118,38.506l-36.587,21.211
			c-6.157-10.146-14.668-18.281-25.347-24.17c-11.45-6.309-24.478-9.512-38.721-9.512c-24.199,0-44.092,7.725-59.106,22.979
			c-14.785,15.488-22.266,35.479-22.266,59.424c0,23.721,7.48,43.584,22.241,59.043c15.039,15.283,34.917,23.008,59.131,23.008
			c14.243,0,27.334-3.193,38.896-9.512c10.757-5.898,19.224-13.896,25.186-23.818l36.572,21.201
			c-10.024,16.016-23.838,28.955-41.118,38.496C1787.959,729.836,1767.92,734.905,1746.518,734.905"/>
		<path id="path20" fill="#6DCC9C" d="M2089.721,528.997c-22.822,0-42.227,7.842-57.705,23.311
			c-15.469,15.469-23.311,35.342-23.311,59.092s7.842,43.613,23.311,59.082c15.254,15.244,34.668,22.969,57.705,22.969
			s42.451-7.725,57.686-22.969c15.488-15.469,23.32-35.352,23.32-59.082s-7.832-43.613-23.32-59.092
			C2131.938,536.838,2112.524,528.997,2089.721,528.997z M2089.721,734.905c-34.248,0-63.701-11.982-87.568-35.625
			c-23.613-24.062-35.605-53.643-35.605-87.881c0-34.463,11.973-63.916,35.625-87.559c23.867-23.867,53.32-35.957,87.549-35.957
			s63.682,12.09,87.559,35.957c23.867,23.652,35.967,53.105,35.967,87.559s-12.1,64.023-35.967,87.891
			C2153.423,722.922,2123.96,734.905,2089.721,734.905"/>
		<path id="path22" fill="#6DCC9C" d="M2435.346,734.905c-26.26,0-48.057-7.461-64.795-22.197
			c-16.66-14.668-25.098-34.639-25.098-59.375V492.737h42.158v156.787c0,13.633,4.072,24.492,12.061,32.266
			c8.008,7.734,20,11.66,35.674,11.66s27.646-3.926,35.654-11.66c8.027-7.793,12.08-18.643,12.08-32.266V492.737h42.51v160.596
			c0,24.736-8.438,44.707-25.098,59.375C2483.745,727.444,2461.811,734.905,2435.346,734.905"/>
		<path id="path24" fill="#6DCC9C" d="M2713.462,609.211h51.914c9.756,0,18.223-3.848,25.195-11.436
			c6.895-7.52,10.4-16.709,10.4-27.285c0-10.596-3.506-19.717-10.41-27.119c-6.982-7.48-15.439-11.26-25.186-11.26h-51.914V609.211
			L2713.462,609.211z M2802.954,730.051l-48.867-84.229h-40.625v84.229h-42.49V492.737h94.404c21.572,0,40.186,7.666,55.312,22.783
			c15.117,15.117,22.773,33.613,22.773,54.971c0,14.414-4.16,27.979-12.354,40.293c-8.252,12.354-19.307,21.777-32.861,28.008
			l-2.686,1.221l52.861,90.039H2802.954"/>
		<path id="path26" fill="#6DCC9C" d="M3057.27,734.905c-23.184,0-42.979-5.215-58.867-15.508
			c-15.234-9.854-26.377-23.516-33.184-40.625l36.299-21.221c10.215,23.818,29.414,35.898,57.139,35.898
			c13.457,0,23.75-2.5,30.664-7.432c7.188-5.137,10.82-12.168,10.82-20.889c0-9.502-4.277-16.914-12.734-22.031
			c-7.832-5-21.445-10.215-41.543-15.898c-20.82-6.318-37.49-13.789-49.473-22.158c-14.404-10.693-21.738-26.758-21.738-47.725
			c0-21.25,7.5-38.174,22.246-50.293c14.961-12.715,33.379-19.141,54.824-19.141c18.789,0,35.684,4.639,50.215,13.779
			c13.887,8.76,24.961,21.182,32.949,36.914l-35.566,20.547c-10.234-19.99-26.23-30.127-47.598-30.127
			c-10.283,0-18.643,2.461-24.863,7.324c-6.436,5.01-9.707,11.611-9.707,19.609c0,8.447,3.516,15.459,10.391,20.83
			c7.363,5.137,19.629,10.254,37.617,15.693l16.582,5.537c2.988,0.918,8.145,2.861,15.43,5.82c6.738,2.48,11.66,4.814,14.707,6.992
			c11.035,6.748,18.379,13.633,22.09,20.566c5.781,9.395,8.691,20.469,8.691,33.066c0,21.455-7.949,38.721-23.613,51.309
			C3103.188,728.469,3082.407,734.905,3057.27,734.905"/>
		<path id="path28" fill="#6DCC9C" d="M3274.536,730.051V492.737h143.027v40.41h-100.527v57.002h91.855v39.717h-91.855v59.775
			h102.266v40.41H3274.536"/>
		<path id="path30" fill="#6DCC9C" d="M533.687,1887.346c-23.174,0-42.988-5.215-58.872-15.508
			c-15.215-9.844-26.362-23.506-33.164-40.625l36.299-21.221c10.205,23.818,29.404,35.898,57.119,35.898
			c13.457,0,23.779-2.51,30.679-7.422c7.178-5.117,10.82-12.158,10.82-20.898c0-9.502-4.287-16.914-12.725-22.021
			c-7.891-5.029-21.504-10.244-41.567-15.908c-20.84-6.318-37.495-13.789-49.453-22.148c-14.414-10.703-21.748-26.777-21.748-47.734
			c0-21.24,7.485-38.164,22.246-50.283c14.951-12.725,33.384-19.15,54.819-19.15c18.809,0,35.708,4.648,50.229,13.799
			c13.882,8.76,24.951,21.152,32.944,36.904l-35.571,20.547c-10.225-20-26.226-30.137-47.603-30.137
			c-10.264,0-18.628,2.471-24.868,7.324c-6.426,5.01-9.688,11.611-9.688,19.609c0,8.457,3.496,15.469,10.381,20.83
			c7.368,5.156,19.639,10.273,37.627,15.703l16.548,5.518c3.027,0.938,8.154,2.881,15.464,5.83c6.753,2.5,11.67,4.844,14.697,6.982
			c11.011,6.768,18.389,13.643,22.07,20.576c5.796,9.375,8.696,20.449,8.696,33.066c0,21.475-7.944,38.721-23.608,51.309
			C579.619,1880.901,558.838,1887.346,533.687,1887.346"/>
		<path id="path32" fill="#6DCC9C" d="M815.42,1882.502v-196.914h-65.171v-40.42h173.193v40.42H857.92v196.914H815.42"/>
		<path id="path34" fill="#6DCC9C" d="M1164.614,1887.346c-26.25,0-48.047-7.471-64.8-22.207
			c-16.65-14.639-25.083-34.6-25.083-59.355v-160.615h42.148v156.807c0,13.613,4.062,24.473,12.075,32.256
			c7.988,7.725,19.985,11.66,35.659,11.66c15.669,0,27.666-3.936,35.654-11.66c8.018-7.783,12.08-18.643,12.08-32.256v-156.807h42.5
			v160.615c0,24.756-8.438,44.717-25.088,59.355C1213.012,1879.875,1191.089,1887.346,1164.614,1887.346"/>
		<path id="path36" fill="#6DCC9C" d="M1467.011,1842.083h51.201c21.694,0,39.614-7.285,53.242-21.631
			c13.613-14.795,20.503-33.828,20.503-56.611c0-23.027-6.904-41.963-20.503-56.27c-13.628-14.58-31.548-21.982-53.242-21.982
			h-51.201V1842.083z M1424.507,1882.502v-237.334h93.706c32.373,0,59.722,11.514,81.279,34.189
			c21.826,22.51,32.881,50.918,32.881,84.482c0,33.545-11.055,61.973-32.866,84.463c-21.572,22.715-48.921,34.199-81.294,34.199
			H1424.507"/>
		<path id="path38" fill="#6DCC9C" d="M1793.027,1882.502v-237.334h42.49v237.334H1793.027"/>
		<path id="path40" fill="#6DCC9C" d="M2119.331,1681.438c-22.812,0-42.227,7.842-57.686,23.311
			c-15.469,15.479-23.32,35.342-23.32,59.092s7.852,43.613,23.32,59.082c15.234,15.234,34.629,22.969,57.686,22.969
			c23.037,0,42.471-7.734,57.705-22.969c15.469-15.469,23.311-35.352,23.311-59.082s-7.842-43.613-23.311-59.092
			C2161.567,1689.28,2142.153,1681.438,2119.331,1681.438z M2119.331,1887.346c-34.229,0-63.691-11.973-87.559-35.625
			c-23.623-24.053-35.596-53.643-35.596-87.881c0-34.453,11.973-63.906,35.605-87.559c23.887-23.867,53.34-35.957,87.549-35.957
			c34.229,0,63.682,12.09,87.549,35.957c23.867,23.652,35.977,53.105,35.977,87.559c0,34.463-12.109,64.033-35.977,87.891
			C2183.042,1875.374,2153.579,1887.346,2119.331,1887.346"/>
	</g>
</g>
<g>
	
		<g id="course" xmlnsSvg="http://www.w3.org/2000/svg" xmlnsRdf="http://www.w3.org/1999/02/22-rdf-syntax-ns#" xmlnsCc="http://creativecommons.org/ns#" xmlnsDc="http://purl.org/dc/elements/1.1/">
		<g>
			<path fill="#303030" d="M120,0.002L120,0.002L0,0.001v119.966h1.374v0.035h386.376v-120H120z M116.976,3.025v113.954H3.024V3.025
				H116.976z M384.727,116.979H120.001V3.027h264.728v113.952H384.727z"/>
			<path fill="#303030" d="M308.932,68.607c-0.691,0.493-1.721,0.743-3.066,0.743c-2.771,0-4.691-1.208-5.714-3.59l-3.63,2.122
				c0.682,1.711,1.795,3.077,3.318,4.062c1.589,1.029,3.568,1.552,5.887,1.552c2.514,0,4.592-0.645,6.178-1.916
				c1.566-1.26,2.361-2.985,2.361-5.132c0-1.26-0.291-2.366-0.869-3.307c-0.371-0.693-1.105-1.382-2.209-2.057
				c-0.305-0.219-0.797-0.451-1.471-0.699c-0.729-0.296-1.244-0.49-1.543-0.582l-1.658-0.554c-1.799-0.544-3.025-1.057-3.762-1.569
				c-0.688-0.537-1.039-1.238-1.039-2.083c0-0.8,0.326-1.46,0.971-1.961c0.622-0.486,1.458-0.732,2.486-0.732
				c2.137,0,3.736,1.015,4.76,3.014l3.557-2.056c-0.799-1.572-1.906-2.814-3.295-3.69c-1.453-0.914-3.143-1.378-5.021-1.378
				c-2.145,0-3.985,0.643-5.481,1.914c-1.476,1.212-2.226,2.903-2.226,5.028c0,2.098,0.734,3.703,2.175,4.772
				c1.198,0.837,2.864,1.584,4.946,2.216c2.01,0.568,3.371,1.09,4.154,1.59c0.846,0.512,1.273,1.253,1.273,2.203
				C310.014,67.39,309.651,68.093,308.932,68.607z"/>
			<polygon fill="#303030" points="341.93,68.969 331.704,68.969 331.704,62.991 340.889,62.991 340.889,59.02 331.704,59.02 
				331.704,53.32 341.756,53.32 341.756,49.279 327.454,49.279 327.454,73.01 341.93,73.01 			"/>
			<path fill="#303030" d="M32.773,84.163c4.113,3.327,10.743,4.24,15.093,2.079l9.448-4.69c0,0,0,15.854,0,16.23
				c0,0.379,0.216,0.896,0.917,0.548c0.7-0.351,28.412-14.112,28.412-14.112c2.397-1.19,3.77-3.187,3.763-5.472
				c0-0.02-0.002-0.037-0.002-0.056L90.406,40.6H90.4c0.038-2.081-1.097-4.198-3.175-5.88c-4.112-3.328-10.742-4.241-15.093-2.08
				l-11.871,5.905c0,0,0-16.146,0-16.547s-0.246-0.552-0.629-0.36C59.247,21.829,33.36,34.684,33.36,34.684
				c-2.18,1.081-3.505,2.805-3.73,4.853c-0.022,0.202-0.033,0.404-0.033,0.608l-0.001,38.354l0.001,0.062
				C29.658,80.567,30.787,82.557,32.773,84.163z M85.332,81.579L60.259,94.033V80.087l13.185-6.548
				c3.287-1.634,8.751-0.841,11.929,1.731c1.334,1.078,2.071,2.307,2.084,3.456v0.019h0.001c0,0.002,0.001,0.005,0.001,0.009
				C87.463,79.894,86.708,80.897,85.332,81.579z M87.458,73.178c-0.076-0.066-0.152-0.132-0.231-0.195
				c-4.113-3.327-10.743-4.242-15.093-2.08L60.259,76.8l0.001-17.722l26.38-13.121c0.289-0.144,0.561-0.299,0.818-0.463V73.178z
				 M32.559,39.859c0.143-1.301,1.228-2.099,2.112-2.539l22.645-11.241l-0.001,13.933l-10.756,5.351
				c-3.287,1.634-8.75,0.842-11.929-1.73C33.178,42.455,32.423,41.081,32.559,39.859z M32.541,78.474l0.001-32.749
				c0.077,0.064,0.155,0.129,0.235,0.193c4.113,3.328,10.742,4.24,15.093,2.08l25.573-12.721c3.288-1.633,8.751-0.839,11.929,1.731
				c1.451,1.174,2.205,2.55,2.071,3.771c-0.143,1.301-1.227,2.098-2.114,2.537L57.314,57.254l-0.001,21.008l-10.758,5.345
				c-3.287,1.632-8.75,0.841-11.93-1.731c-1.304-1.056-2.043-2.26-2.085-3.393L32.541,78.474L32.541,78.474z"/>
			<path fill="#303030" d="M208.972,73.495c3.424,0,6.37-1.198,8.756-3.562c2.388-2.387,3.597-5.344,3.597-8.789
				s-1.209-6.391-3.597-8.756c-2.388-2.387-5.333-3.596-8.756-3.596s-6.368,1.209-8.755,3.596c-2.365,2.364-3.562,5.31-3.562,8.756
				c0,3.424,1.199,6.382,3.561,8.788C202.602,72.297,205.547,73.495,208.972,73.495z M203.202,55.236
				c1.549-1.547,3.488-2.331,5.771-2.331c2.279,0,4.222,0.784,5.77,2.331c1.549,1.548,2.332,3.536,2.332,5.909
				s-0.783,4.361-2.332,5.908c-1.523,1.524-3.466,2.297-5.77,2.297c-2.305,0-4.245-0.771-5.771-2.297
				c-1.547-1.547-2.33-3.533-2.33-5.908S201.655,56.782,203.202,55.236z"/>
			<path fill="#303030" d="M271.346,64.587h4.062l4.887,8.423h4.547l-5.286-9.004l0.269-0.122c1.355-0.623,2.461-1.565,3.286-2.801
				c0.819-1.231,1.235-2.588,1.235-4.029c0-2.136-0.766-3.985-2.277-5.497c-1.513-1.512-3.374-2.278-5.531-2.278h-9.439V73.01h4.249
				L271.346,64.587L271.346,64.587z M271.346,53.216h5.191c0.975,0,1.819,0.378,2.519,1.126c0.69,0.74,1.041,1.652,1.041,2.712
				c0,1.058-0.351,1.977-1.04,2.729c-0.697,0.76-1.544,1.145-2.52,1.145h-5.191V53.216z"/>
			<path fill="#303030" d="M174.652,73.495c2.14,0,4.144-0.508,5.954-1.51c1.728-0.954,3.109-2.248,4.112-3.85l-3.657-2.12
				c-0.596,0.992-1.443,1.792-2.519,2.382c-1.156,0.632-2.465,0.951-3.89,0.951c-2.421,0-4.409-0.772-5.913-2.301
				c-1.476-1.546-2.224-3.532-2.224-5.904c0-2.395,0.748-4.394,2.227-5.942c1.501-1.524,3.491-2.298,5.911-2.298
				c1.424,0,2.727,0.32,3.872,0.951c1.068,0.589,1.919,1.402,2.535,2.417l3.659-2.121c-1.002-1.6-2.384-2.895-4.112-3.851
				c-1.811-1.001-3.813-1.508-5.954-1.508c-3.539,0-6.519,1.196-8.86,3.562c-2.317,2.316-3.492,5.274-3.492,8.79
				c0,3.492,1.175,6.449,3.492,8.791C168.132,72.298,171.113,73.495,174.652,73.495z"/>
			<path fill="#303030" d="M237.055,71.276c1.674,1.475,3.854,2.221,6.479,2.221c2.646,0,4.84-0.746,6.516-2.221
				c1.666-1.467,2.51-3.464,2.51-5.938V49.278h-4.251v15.68c0,1.361-0.405,2.446-1.208,3.227c-0.801,0.773-1.998,1.166-3.564,1.166
				c-1.568,0-2.768-0.393-3.568-1.166c-0.799-0.777-1.205-1.863-1.205-3.227V49.279h-4.217v16.061
				C234.545,67.812,235.389,69.809,237.055,71.276z"/>
		</g>
	</g>
	
		<g id="studio" xmlnsSvg="http://www.w3.org/2000/svg" xmlnsRdf="http://www.w3.org/1999/02/22-rdf-syntax-ns#" xmlnsCc="http://creativecommons.org/ns#" xmlnsDc="http://purl.org/dc/elements/1.1/">
		<g>
			<path fill="#303030" d="M445.824,61.41c0.58,0.938,0.869,2.045,0.869,3.307c0,2.147-0.794,3.872-2.361,5.131
				c-1.584,1.271-3.662,1.916-6.176,1.916c-2.318,0-4.3-0.521-5.888-1.551c-1.521-0.983-2.636-2.351-3.315-4.062l3.629-2.122
				c1.021,2.382,2.94,3.59,5.713,3.59c1.346,0,2.377-0.251,3.068-0.742c0.717-0.512,1.082-1.216,1.082-2.09
				c0-0.95-0.43-1.691-1.272-2.202c-0.789-0.503-2.15-1.023-4.157-1.591c-2.084-0.632-3.75-1.379-4.945-2.215
				c-1.441-1.07-2.175-2.678-2.175-4.773c0-2.124,0.749-3.815,2.226-5.027c1.494-1.272,3.338-1.915,5.481-1.915
				c1.881,0,3.571,0.465,5.022,1.38c1.389,0.876,2.496,2.115,3.295,3.689l-3.557,2.056c-1.022-2-2.623-3.015-4.761-3.015
				c-1.026,0-1.862,0.247-2.487,0.732c-0.643,0.501-0.969,1.161-0.969,1.961c0,0.846,0.35,1.547,1.038,2.083
				c0.737,0.516,1.964,1.027,3.763,1.57l1.655,0.552c0.304,0.094,0.815,0.288,1.546,0.583c0.676,0.25,1.167,0.483,1.471,0.698
				C444.717,60.029,445.455,60.717,445.824,61.41z M459.811,51.588h6.517v19.691h4.25V51.588h6.553v-4.042h-17.319V51.588z
				 M587.962,68.201c-2.361-2.405-3.559-5.364-3.559-8.788c0-3.445,1.196-6.391,3.561-8.756c2.389-2.387,5.334-3.596,8.755-3.596
				c3.423,0,6.368,1.209,8.755,3.596c2.387,2.365,3.598,5.311,3.598,8.756c0,3.446-1.211,6.403-3.598,8.789
				c-2.384,2.364-5.33,3.562-8.755,3.562C593.296,71.764,590.35,70.567,587.962,68.201z M588.619,59.413
				c0,2.375,0.785,4.361,2.332,5.908c1.523,1.522,3.463,2.297,5.77,2.297c2.304,0,4.247-0.773,5.771-2.297
				c1.547-1.547,2.33-3.535,2.33-5.908s-0.783-4.361-2.33-5.909c-1.547-1.547-3.488-2.331-5.771-2.331
				c-2.281,0-4.223,0.784-5.77,2.331C589.404,55.052,588.619,57.038,588.619,59.413z M568.337,47.546h-4.248v23.733h4.248V47.546z
				 M536.607,71.279h-9.371V47.546h9.371c3.237,0,5.973,1.151,8.129,3.419c2.182,2.251,3.287,5.092,3.287,8.448
				c0,3.354-1.105,6.197-3.287,8.446C542.58,70.131,539.845,71.279,536.607,71.279z M531.488,67.237h5.119
				c2.17,0,3.961-0.729,5.324-2.163c1.361-1.479,2.05-3.383,2.05-5.661c0-2.303-0.69-4.196-2.05-5.627
				c-1.363-1.458-3.154-2.198-5.324-2.198h-5.119V67.237z M654.414,3.027v116.976H384.787V3.025l0,0V0l116.977,0.001l3.023,0.001
				h149.627v0.001V3.027L654.414,3.027z M651.392,3.027h-149.63H387.81v113.95h263.582V3.027z M497.682,66.452
				c-0.801-0.778-1.208-1.864-1.208-3.226V47.545h-4.215v16.062c0,2.476,0.843,4.472,2.508,5.936
				c1.676,1.475,3.855,2.221,6.48,2.221c2.646,0,4.84-0.746,6.515-2.221c1.665-1.464,2.509-3.46,2.509-5.936V47.545h-4.25v15.682
				c0,1.36-0.406,2.446-1.208,3.226c-0.799,0.771-1.999,1.166-3.565,1.166C499.68,67.618,498.48,67.224,497.682,66.452z"/>
		</g>
	</g>
</g>
</svg>
