<svg width="100%" height="100%" viewBox="0 0 330 207" version="1.1" xmlns="http://www.w3.org/2000/svg" xmlnsXlink="http://www.w3.org/1999/xlink" xmlSpace="preserve" xmlnsSerif="http://www.serif.com/" style="fill-rule:evenodd;clip-rule:evenodd;stroke-linejoin:round;stroke-miterlimit:2;">
    <g transform="matrix(1,0,0,1,-990,-931)">
        <g transform="matrix(1.547,0,0,1.547,-542.68,-497.234)">
            <g id="Layer1">
                <g>
                    <g transform="matrix(2.61737,0,0,2.61737,-1457.49,-1485.37)">
                        <path d="M935.898,965.691L935.898,914.805L938.75,914.805L974.283,949.387L974.283,914.805L976.988,914.805L976.988,965.691L935.898,965.691Z" style="fill:rgb(250,107,161);fill-rule:nonzero;"/>
                    </g>
                    <g transform="matrix(2.61737,0,0,2.61737,-1778.53,-1470.21)">
                        <path d="M1099.64,959.902L1099.64,909.015L1120.92,909.015C1124.48,909.015 1127.55,909.673 1130.13,910.989C1133.11,912.5 1135.47,914.657 1137.23,917.46C1138.98,920.263 1139.86,923.346 1139.86,926.709C1139.86,930.072 1138.99,933.167 1137.26,935.994C1135.53,938.821 1133.18,940.99 1130.21,942.501C1127.67,943.817 1124.58,944.475 1120.92,944.475L1112.95,944.475L1112.95,959.902L1099.64,959.902Z" style="fill:rgb(80,80,80);fill-rule:nonzero;"/>
                    </g>
                </g>
            </g>
        </g>
    </g>
</svg>
